<svg xmlns="http://www.w3.org/2000/svg" width="256" height="256" viewBox="0 0 100 100"><rect width="100" height="100" rx="20" fill="#0065fc"></rect><path fill="#fff" d="M74.03 65.48L74.03 65.48Q74.03 70.25 71.60 73.98Q69.17 77.72 65.07 79.84Q60.98 81.95 56.12 81.95L56.12 81.95L25.97 81.95L25.97 18.05L56.75 18.05Q61.25 18.05 64.53 20.44Q67.82 22.82 69.57 26.56Q71.33 30.29 71.33 34.34L71.33 34.34Q71.33 39.11 68.90 43.16Q66.47 47.21 62.15 49.19L62.15 49.19Q67.64 50.81 70.84 55.22Q74.03 59.63 74.03 65.48ZM67.73 64.40L67.73 64.40Q67.73 61.16 66.29 58.42Q64.85 55.67 62.38 53.96Q59.90 52.25 56.75 52.25L56.75 52.25L32.27 52.25L32.27 76.46L56.12 76.46Q59.36 76.46 61.97 74.75Q64.58 73.04 66.16 70.30Q67.73 67.55 67.73 64.40ZM54.77 23.54L32.27 23.54L32.27 47.12L54.23 47.12Q57.38 47.12 59.81 45.46Q62.24 43.79 63.68 41.09Q65.12 38.39 65.12 35.33L65.12 35.33Q65.12 32.09 63.77 29.44Q62.42 26.78 60.08 25.16Q57.74 23.54 54.77 23.54L54.77 23.54Z"></path></svg>